<svg width="361" height="35" viewBox="0 0 361 35" fill="none" xmlns="http://www.w3.org/2000/svg">
<path d="M179.783 33.6555H167.376V0.487059H179.783V33.6555ZM168.588 32.4439H178.571V1.69865H168.588V32.4439ZM197.045 33.6555H184.888V0.487059H210.288C213.927 0.192401 217.55 1.21394 220.499 3.36579C221.769 4.52725 222.753 5.96632 223.374 7.57071C223.996 9.17512 224.239 10.9015 224.083 12.6151C224.264 15.5761 223.322 18.4966 221.444 20.7933C219.222 23.3425 215.525 24.6558 210.455 24.7019C209.178 24.7358 199.609 24.7019 197.053 24.7019L197.045 33.6555ZM186.093 32.4439H195.834V23.4782H196.442C196.566 23.4782 208.989 23.5169 210.426 23.4782C215.149 23.437 218.544 22.2666 220.528 19.9815C222.2 17.9035 223.03 15.2736 222.855 12.6126C223.004 11.0772 222.797 9.52815 222.251 8.08551C221.704 6.64287 220.833 5.34545 219.705 4.29387C216.97 2.33134 213.625 1.41012 210.271 1.69622H186.1L186.093 32.4439ZM207.715 17.2506H195.751V8.22184H207.795C208.648 8.10388 209.518 8.20352 210.323 8.51148C211.128 8.81947 211.842 9.32579 212.399 9.98349C212.904 10.8242 213.142 11.7984 213.082 12.7774C213.127 13.6863 212.931 14.5911 212.513 15.3993C211.938 16.092 211.195 16.6253 210.355 16.9478C209.514 17.2703 208.605 17.3713 207.715 17.2409V17.2506ZM196.963 16.039H207.715C209.702 16.039 210.933 15.6246 211.478 14.7717C211.778 14.1517 211.914 13.465 211.873 12.7774C211.926 12.0554 211.769 11.3335 211.422 10.6983L211.408 10.6765C210.831 9.8284 209.685 9.43343 207.795 9.43343H196.963V16.039ZM246.195 34.145C235.315 34.145 228.821 31.4431 226.346 25.8868C225.942 24.8136 225.667 23.6958 225.527 22.5574L225.421 21.8595H238.365L238.45 22.3683C238.55 22.885 238.77 23.3713 239.09 23.7883C239.601 24.4062 241.307 25.4434 246.968 25.4434C253.772 25.4434 253.772 24.2487 253.772 23.6066C253.772 22.5234 252.984 22.1527 247.435 21.5614L246.381 21.4621C244.293 21.2658 241.651 21.0162 240.445 20.912C230.267 19.9912 225.724 16.829 225.724 10.662C225.724 4.18483 233.456 0 245.424 0C255.187 0 261.478 2.57341 264.117 7.65481C264.742 8.83679 265.163 10.1167 265.36 11.4398L265.444 12.1207H252.485L252.432 11.5731C252.381 11.1451 252.199 10.7436 251.909 10.4245C251.424 9.77509 249.893 8.70163 245.138 8.70163C239.301 8.70163 238.496 9.44796 238.496 10.2525C238.496 11.3259 240.34 11.7064 246.25 12.3388C248.715 12.5399 252.677 12.947 254.034 13.1118C262.566 14.0375 266.373 17.1222 266.373 23.1171C266.375 28.1452 262.873 34.145 246.195 34.145ZM226.836 23.0711C226.957 23.8702 227.166 24.6534 227.459 25.407C229.712 30.469 235.843 32.9334 246.195 32.9334C254.85 32.9334 265.171 31.2372 265.171 23.1171C265.171 17.8031 261.802 15.1715 253.905 14.3161C252.548 14.1514 248.611 13.7467 246.151 13.5431C239.851 12.8598 237.29 12.4963 237.29 10.2525C237.29 7.93106 240.05 7.49004 245.143 7.49004C249.168 7.49004 251.768 8.21699 252.871 9.68301C253.171 10.0442 253.399 10.4607 253.539 10.9091H264.041C263.831 9.97198 263.496 9.06678 263.048 8.21699C260.625 3.56692 254.705 1.21159 245.429 1.21159C234.198 1.21159 226.94 4.92147 226.94 10.662C226.94 16.1384 231.014 18.8426 240.556 19.7053C241.768 19.8095 244.406 20.0591 246.5 20.2578L247.561 20.3571C252.716 20.8999 254.988 21.2391 254.988 23.6066C254.988 26.1558 252.049 26.6549 246.973 26.6549C242.276 26.6549 239.311 25.9498 238.164 24.5613C237.811 24.1186 237.544 23.6129 237.379 23.0711H226.836ZM289.393 34.1038C276.744 34.1038 269.765 28.9885 269.765 19.698V0.487059H282.007V19.698C282.007 22.8845 284.859 24.7116 289.829 24.7116C294.578 24.7116 297.527 22.8045 297.527 19.7392V0.487059H309.643V20.7157C309.655 29.2235 302.267 34.1038 289.385 34.1038H289.393ZM270.977 1.69865V19.698C270.977 31.179 282.506 32.8922 289.393 32.8922C296.512 32.8922 308.451 31.3099 308.451 20.7157V1.69865H298.758V19.7392C298.758 23.4951 295.259 25.9231 289.848 25.9231C284.193 25.9231 280.815 23.5969 280.815 19.698V1.69865H270.977ZM360.985 33.6555H349.432V18.6803L342.879 33.6555H332.801L326.317 18.7093V33.6555H314.722V0.487059H329.974L337.897 18.7748L346.204 0.487059H361L360.985 33.6555ZM350.643 32.4439H359.774V1.69865H346.975L337.859 21.7601L329.169 1.69865H315.924V32.4439H325.096V12.8792L333.577 32.4512H342.058L350.629 12.9083L350.643 32.4439ZM11.0351 1.09285H0V33.0497H30.4933V24.5419H11.0351V1.09285ZM52.7671 0.3659C38.6812 0.3659 31.2735 7.04175 31.2735 16.8435C31.2735 27.9174 39.0495 33.5343 52.7671 33.5343C67.8683 33.5343 74.2195 27.0208 74.2195 16.8435C74.2195 6.50865 67.0541 0.361054 52.7671 0.361054V0.3659ZM52.7259 8.67013C53.6848 8.66562 54.6431 8.72145 55.5949 8.83733L43.2585 21.1737C42.6748 19.8533 42.3901 18.42 42.425 16.9768C42.425 11.9632 44.9499 8.66528 52.7259 8.66528V8.67013ZM52.7671 25.361C51.8431 25.3651 50.9199 25.3132 50.0022 25.2059L62.3605 12.8477C62.9224 14.1463 63.1914 15.5527 63.148 16.9671C63.148 21.8449 60.8217 25.3561 52.7671 25.3561V25.361ZM96.0838 20.9992H107.441C107.274 21.7875 106.926 22.5259 106.423 23.1559C104.069 25.0741 101.064 26.0075 98.0369 25.7608C96.5132 25.9239 94.9725 25.7574 93.5189 25.2728C92.0652 24.7884 90.7324 23.997 89.6115 22.9523C88.4631 21.268 87.9177 19.2451 88.0631 17.2118C87.8772 15.0812 88.4704 12.9556 89.7326 11.229C91.3198 9.43585 94.0071 8.66286 97.9569 8.66286C100.47 8.45478 102.98 9.10019 105.081 10.4948C105.743 11.0208 106.238 11.728 106.506 12.5302H117.039C116.963 11.2083 116.645 9.91159 116.102 8.70405C113.579 3.57419 107.715 0.520983 97.7437 0.520983C89.0711 0.520983 83.2507 3.16709 80.0351 7.15806C77.9114 10.0401 76.8212 13.5539 76.9407 17.1319C76.8033 20.7909 77.8654 24.3944 79.9648 27.394C83.1416 31.5134 88.7997 33.5392 95.5992 33.5392C100.12 33.8544 104.609 32.5883 108.299 29.9577L108.585 33.0497H117.335V14.1199H96.0838V20.9992ZM142.17 0.35863C128.087 0.35863 120.677 7.03448 120.677 16.8362C120.677 27.9101 128.45 33.5271 142.17 33.5271C157.274 33.5271 163.625 27.0136 163.625 16.8362C163.625 6.50865 156.46 0.361054 142.17 0.361054V0.35863ZM142.131 8.66286C143.065 8.66009 143.998 8.7135 144.925 8.82279L132.637 21.118C132.072 19.8121 131.797 18.3994 131.83 16.9768C131.821 11.9632 134.355 8.66528 142.131 8.66528V8.66286ZM142.17 25.3537C141.222 25.3578 140.274 25.3026 139.333 25.1889L151.732 12.7871C152.315 14.103 152.594 15.5333 152.549 16.9719C152.554 21.8449 150.237 25.3561 142.17 25.3561V25.3537Z" fill="#0061FF"/>
</svg>
