<svg width="12" height="13" viewBox="0 0 12 13" fill="none" xmlns="http://www.w3.org/2000/svg">
<path d="M10.9995 5.00613H3.4064L6.70774 1.71479C6.89612 1.52641 7.00195 1.27091 7.00195 1.0045C7.00195 0.73809 6.89612 0.482592 6.70774 0.294211C6.51936 0.105831 6.26386 0 5.99745 0C5.73104 0 5.47555 0.105831 5.28717 0.294211L0.28513 5.29625C0.194052 5.39139 0.122658 5.50358 0.075044 5.62638C-0.0250147 5.86994 -0.0250147 6.14313 0.075044 6.38669C0.122658 6.50949 0.194052 6.62168 0.28513 6.71682L5.28717 11.7189C5.38017 11.8126 5.49081 11.8871 5.61272 11.9378C5.73463 11.9886 5.86539 12.0148 5.99745 12.0148C6.12952 12.0148 6.26028 11.9886 6.38219 11.9378C6.5041 11.8871 6.61474 11.8126 6.70774 11.7189C6.80151 11.6259 6.87593 11.5152 6.92672 11.3933C6.97751 11.2714 7.00366 11.1406 7.00366 11.0086C7.00366 10.8765 6.97751 10.7457 6.92672 10.6238C6.87593 10.5019 6.80151 10.3913 6.70774 10.2983L3.4064 7.00694H10.9995C11.2648 7.00694 11.5193 6.90154 11.7069 6.71393C11.8945 6.52632 11.9999 6.27186 11.9999 6.00654C11.9999 5.74121 11.8945 5.48675 11.7069 5.29914C11.5193 5.11153 11.2648 5.00613 10.9995 5.00613Z" fill="#262B35"/>
</svg>
