<svg width="22" height="22" viewBox="0 0 22 22" fill="none" xmlns="http://www.w3.org/2000/svg">
<path d="M6.04783 14.5189C5.86158 14.7063 5.75704 14.9597 5.75704 15.2239C5.75704 15.4881 5.86158 15.7415 6.04783 15.9289C6.14079 16.0226 6.25139 16.097 6.37325 16.1478C6.49511 16.1986 6.62582 16.2247 6.75783 16.2247C6.88984 16.2247 7.02055 16.1986 7.14241 16.1478C7.26426 16.097 7.37487 16.0226 7.46783 15.9289C7.65408 15.7415 7.75862 15.4881 7.75862 15.2239C7.75862 14.9597 7.65408 14.7063 7.46783 14.5189C7.37487 14.4252 7.26426 14.3508 7.14241 14.3C7.02055 14.2492 6.88984 14.2231 6.75783 14.2231C6.62582 14.2231 6.49511 14.2492 6.37325 14.3C6.25139 14.3508 6.14079 14.4252 6.04783 14.5189ZM6.04783 6.0289C5.86158 6.21626 5.75704 6.46971 5.75704 6.7339C5.75704 6.99808 5.86158 7.25154 6.04783 7.4389C6.14079 7.53263 6.25139 7.60702 6.37325 7.65779C6.49511 7.70856 6.62582 7.7347 6.75783 7.7347C6.88984 7.7347 7.02055 7.70856 7.14241 7.65779C7.26426 7.60702 7.37487 7.53263 7.46783 7.4389C7.65408 7.25154 7.75862 6.99808 7.75862 6.7339C7.75862 6.46971 7.65408 6.21626 7.46783 6.0289C7.37487 5.93517 7.26426 5.86078 7.14241 5.81001C7.02055 5.75924 6.88984 5.7331 6.75783 5.7331C6.62582 5.7331 6.49511 5.75924 6.37325 5.81001C6.25139 5.86078 6.14079 5.93517 6.04783 6.0289ZM10.9978 16.0289C10.8 16.0289 10.6067 16.0875 10.4423 16.1974C10.2778 16.3073 10.1496 16.4635 10.0739 16.6462C9.99826 16.8289 9.97846 17.03 10.017 17.224C10.0556 17.418 10.1509 17.5962 10.2907 17.736C10.4306 17.8759 10.6088 17.9711 10.8027 18.0097C10.9967 18.0483 11.1978 18.0285 11.3805 17.9528C11.5632 17.8771 11.7194 17.7489 11.8293 17.5845C11.9392 17.42 11.9978 17.2267 11.9978 17.0289C12.0046 16.8934 11.9838 16.758 11.9366 16.6308C11.8893 16.5037 11.8168 16.3875 11.7232 16.2892C11.6297 16.191 11.5171 16.1129 11.3924 16.0595C11.2677 16.0062 11.1335 15.9787 10.9978 15.9789V16.0289ZM4.99783 10.0289C4.80005 10.0289 4.60671 10.0875 4.44226 10.1974C4.27781 10.3073 4.14964 10.4635 4.07395 10.6462C3.99826 10.8289 3.97846 11.03 4.01704 11.224C4.05563 11.418 4.15087 11.5962 4.29072 11.736C4.43057 11.8759 4.60876 11.9711 4.80274 12.0097C4.99672 12.0483 5.19779 12.0285 5.38051 11.9528C5.56324 11.8771 5.71942 11.7489 5.8293 11.5845C5.93918 11.42 5.99783 11.2267 5.99783 11.0289C6.00461 10.8934 5.98376 10.758 5.93655 10.6308C5.88934 10.5037 5.81676 10.3875 5.72322 10.2892C5.62967 10.191 5.51713 10.1129 5.39242 10.0595C5.26772 10.0062 5.13347 9.97873 4.99783 9.9789V10.0289ZM10.9978 4.0289C10.8 4.0289 10.6067 4.08755 10.4423 4.19743C10.2778 4.30731 10.1496 4.46349 10.0739 4.64621C9.99826 4.82894 9.97846 5.03001 10.017 5.22399C10.0556 5.41797 10.1509 5.59615 10.2907 5.73601C10.4306 5.87586 10.6088 5.9711 10.8027 6.00968C10.9967 6.04827 11.1978 6.02847 11.3805 5.95278C11.5632 5.87709 11.7194 5.74892 11.8293 5.58447C11.9392 5.42002 11.9978 5.22668 11.9978 5.0289C12.0046 4.89343 11.9838 4.758 11.9366 4.63084C11.8893 4.50369 11.8168 4.38746 11.7232 4.28924C11.6297 4.19102 11.5171 4.11286 11.3924 4.05951C11.2677 4.00615 11.1335 3.97873 10.9978 3.9789V4.0289ZM14.5378 6.0789C14.3974 6.21851 14.3015 6.39668 14.2625 6.59083C14.2234 6.78497 14.2429 6.98634 14.3184 7.16941C14.3939 7.35249 14.5221 7.50902 14.6866 7.61916C14.8512 7.72931 15.0448 7.78811 15.2428 7.78811C15.4409 7.78811 15.6344 7.72931 15.799 7.61916C15.9636 7.50902 16.0918 7.35249 16.1673 7.16941C16.2428 6.98634 16.2622 6.78497 16.2232 6.59083C16.1841 6.39668 16.0883 6.21851 15.9478 6.0789C15.7672 5.88585 15.5174 5.77222 15.2531 5.76285C14.9889 5.75348 14.7317 5.84914 14.5378 6.0289V6.0789ZM20.8378 6.0789C19.9236 4.2512 18.5182 2.71432 16.7794 1.6406C15.0406 0.566881 13.037 -0.00121923 10.9934 1.96467e-06C8.94982 0.00122316 6.94695 0.571718 5.20941 1.64751C3.47188 2.72331 2.06838 4.26187 1.15631 6.09066C0.244235 7.91945 -0.140352 9.96617 0.0456729 12.0013C0.231698 14.0364 0.980979 15.9795 2.2095 17.6126C3.43801 19.2458 5.09719 20.5044 7.00097 21.2473C8.90475 21.9903 10.9779 22.1882 12.9878 21.8189C13.4933 21.7238 13.9747 21.5289 14.4039 21.2456C14.8332 20.9623 15.2017 20.5963 15.4878 20.1689C15.7962 19.7043 16.0089 19.1829 16.1137 18.6352C16.2184 18.0876 16.213 17.5245 16.0978 16.9789C16.0349 16.6492 16.0014 16.3145 15.9978 15.9789C16.0022 15.0099 16.2881 14.063 16.8207 13.2534C17.3533 12.4439 18.1097 11.8065 18.9978 11.4189C19.4767 11.2045 19.9065 10.8942 20.2608 10.5072C20.6151 10.1203 20.8864 9.66477 21.0578 9.1689C21.2312 8.66218 21.3011 8.12581 21.2633 7.59158C21.2255 7.05736 21.0808 6.53616 20.8378 6.0589V6.0789ZM19.1378 8.5189C19.0525 8.75822 18.92 8.97799 18.7483 9.16521C18.5765 9.35243 18.3689 9.50331 18.1378 9.6089C16.9078 10.1595 15.8629 11.0534 15.1285 12.1834C14.3941 13.3134 14.0015 14.6313 13.9978 15.9789C13.9993 16.449 14.0462 16.9178 14.1378 17.3789C14.1989 17.6607 14.2029 17.9519 14.1497 18.2353C14.0965 18.5186 13.987 18.7885 13.8278 19.0289C13.6931 19.2393 13.5159 19.4192 13.3075 19.557C13.0991 19.6947 12.8642 19.7874 12.6178 19.8289C12.0837 19.9293 11.5413 19.9795 10.9978 19.9789C9.792 19.9795 8.59834 19.7377 7.48775 19.268C6.37716 18.7983 5.37228 18.1103 4.53279 17.2446C3.6933 16.379 3.03631 15.3536 2.60084 14.2291C2.16538 13.1046 1.96031 11.9041 1.99783 10.6989C2.07544 8.45169 2.98683 6.31385 4.55446 4.70186C6.12208 3.08987 8.23366 2.11918 10.4778 1.9789H10.9878C12.6636 1.97932 14.3059 2.44759 15.7299 3.33096C17.154 4.21434 18.303 5.47775 19.0478 6.9789C19.2771 7.45388 19.3094 8.00018 19.1378 8.4989V8.5189ZM10.9978 9.9789C10.8 9.9789 10.6067 10.0375 10.4423 10.1474C10.2778 10.2573 10.1496 10.4135 10.0739 10.5962C9.99826 10.7789 9.97846 10.98 10.017 11.174C10.0556 11.368 10.1509 11.5462 10.2907 11.686C10.4306 11.8259 10.6088 11.9211 10.8027 11.9597C10.9967 11.9983 11.1978 11.9785 11.3805 11.9028C11.5632 11.8271 11.7194 11.6989 11.8293 11.5345C11.9392 11.37 11.9978 11.1767 11.9978 10.9789C11.9978 10.7137 11.8925 10.4593 11.7049 10.2718C11.5174 10.0843 11.263 9.9789 10.9978 9.9789Z" fill="#262B35"/>
</svg>
