<svg width="16" height="11" viewBox="0 0 16 11" fill="none" xmlns="http://www.w3.org/2000/svg">
<path fill-rule="evenodd" clip-rule="evenodd" d="M7.66058 2.28448C9.88343 2.28457 12.0213 3.13868 13.6323 4.67028C13.7536 4.78852 13.9475 4.78703 14.067 4.66693L15.2266 3.4966C15.2871 3.43569 15.3208 3.35318 15.3203 3.26733C15.3198 3.18148 15.2851 3.09937 15.2239 3.03917C10.9956 -1.01306 4.32491 -1.01306 0.096575 3.03917C0.0353243 3.09933 0.000572375 3.18141 6.9837e-06 3.26726C-0.00055745 3.35311 0.0331125 3.43565 0.0935653 3.4966L1.25353 4.66693C1.37293 4.78721 1.56698 4.7887 1.68822 4.67028C3.29942 3.13858 5.43751 2.28447 7.66058 2.28448ZM7.66057 6.09206C8.88188 6.09198 10.0596 6.54594 10.9649 7.36571C11.0874 7.48206 11.2802 7.47953 11.3996 7.36003L12.5579 6.1897C12.6189 6.12831 12.6527 6.04503 12.6519 5.9585C12.651 5.87196 12.6154 5.78939 12.5532 5.72926C9.79639 3.16485 5.52709 3.16485 2.77026 5.72926C2.70799 5.78939 2.67246 5.872 2.67164 5.95857C2.67083 6.04513 2.70479 6.1284 2.76592 6.1897L3.92387 7.36003C4.04324 7.47953 4.23612 7.48206 4.35857 7.36571C5.26327 6.54648 6.44006 6.09256 7.66057 6.09206ZM9.98083 8.65389C9.9826 8.74067 9.94848 8.82434 9.88654 8.88513L7.88293 10.9071C7.8242 10.9666 7.74412 11 7.66057 11C7.57702 11 7.49694 10.9666 7.43821 10.9071L5.43427 8.88513C5.37237 8.82429 5.33831 8.7406 5.34015 8.65382C5.34198 8.56704 5.37955 8.48487 5.44397 8.4267C6.72354 7.34443 8.5976 7.34443 9.87717 8.4267C9.94155 8.48491 9.97905 8.56711 9.98083 8.65389Z" fill="#000910"/>
</svg>
