<svg width="19" height="19" viewBox="0 0 19 19" fill="none" xmlns="http://www.w3.org/2000/svg">
<path fill-rule="evenodd" clip-rule="evenodd" d="M6.07503 4.21843L4.55711 2.14853C4.45388 2.00776 4.25881 1.97189 4.11226 2.06672C2.12637 3.35171 1.58047 5.31462 2.3772 6.76163C3.24854 8.34414 4.59242 10.2849 6.65376 12.3462C8.7151 14.4076 10.6559 15.7515 12.2384 16.6228C13.6854 17.4195 15.6483 16.8736 16.9333 14.8877C17.0281 14.7412 16.9922 14.5461 16.8515 14.4429L14.7816 12.925C14.4772 12.7017 14.0735 12.6675 13.7359 12.8363L12.9109 13.2489C12.2091 13.5997 11.2472 13.723 10.3366 13.2545C9.72777 12.9413 8.78945 12.3461 7.72166 11.2783C6.65387 10.2105 6.05867 9.27223 5.74547 8.66344C5.277 7.75284 5.40026 6.79088 5.75113 6.08915L6.16366 5.2641C6.33246 4.92648 6.29825 4.52281 6.07503 4.21843ZM3.01834 0.376111C0.46048 2.0312 -0.856208 5.06404 0.613257 7.73287C1.57229 9.47465 3.029 11.5692 5.22989 13.7701C7.43078 15.971 9.52535 17.4277 11.2671 18.3867C13.936 19.8562 16.9688 18.5395 18.6239 15.9817C19.2981 14.9398 19.043 13.5529 18.0423 12.8191L15.9724 11.3011C15.0592 10.6315 13.8482 10.5289 12.8354 11.0353L12.0103 11.4478C11.7715 11.5672 11.4952 11.5861 11.2578 11.4639C10.8252 11.2414 10.0585 10.7675 9.14553 9.85447C8.23254 8.94148 7.75861 8.17485 7.53606 7.74225C7.4139 7.5048 7.43278 7.22852 7.5522 6.98968L7.96472 6.16463C8.47114 5.1518 8.36851 3.94079 7.69886 3.02762L6.18093 0.957723C5.44706 -0.0430104 4.06023 -0.298053 3.01834 0.376111Z" fill="#535763"/>
</svg>
