<svg width="20" height="20" viewBox="0 0 20 20" fill="none" xmlns="http://www.w3.org/2000/svg">
<path fill-rule="evenodd" clip-rule="evenodd" d="M18 4.17071V3C18 1.34315 16.6569 0 15 0H3C1.34315 0 0 1.34315 0 3V17C0 18.6569 1.34315 20 3 20H17C18.6569 20 20 18.6569 20 17V7C20 5.69378 19.1652 4.58254 18 4.17071ZM2 3C2 2.44772 2.44772 2 3 2H15C15.5523 2 16 2.44772 16 3V4H3C2.44772 4 2 3.55228 2 3ZM2 5.82929C2.31278 5.93985 2.64936 6 3 6H17C17.5523 6 18 6.44771 18 7V9H15C13.3431 9 12 10.3431 12 12C12 13.6569 13.3431 15 15 15H18V17C18 17.5523 17.5523 18 17 18H3C2.44772 18 2 17.5523 2 17V5.82929ZM15 11H18V13H15C14.4477 13 14 12.5523 14 12C14 11.4477 14.4477 11 15 11Z" fill="#535763"/>
</svg>
