<svg width="13" height="13" viewBox="0 0 13 13" fill="none" xmlns="http://www.w3.org/2000/svg">
<path d="M8.02594 6.49809L12.6797 1.85512C12.8835 1.65132 12.998 1.37492 12.998 1.0867C12.998 0.798493 12.8835 0.522085 12.6797 0.318289C12.4759 0.114492 12.1995 0 11.9113 0C11.6231 0 11.3467 0.114492 11.1429 0.318289L6.49993 4.97208L1.85697 0.318289C1.65317 0.114492 1.37676 -2.14735e-09 1.08855 0C0.80034 2.14735e-09 0.523932 0.114492 0.320136 0.318289C0.116339 0.522085 0.00184702 0.798493 0.00184701 1.0867C0.00184701 1.37492 0.116339 1.65132 0.320136 1.85512L4.97392 6.49809L0.320136 11.1411C0.218695 11.2417 0.138181 11.3614 0.0832348 11.4933C0.0282891 11.6251 0 11.7666 0 11.9095C0 12.0523 0.0282891 12.1938 0.0832348 12.3257C0.138181 12.4576 0.218695 12.5773 0.320136 12.6779C0.420747 12.7793 0.540448 12.8598 0.672333 12.9148C0.804219 12.9697 0.945678 12.998 1.08855 12.998C1.23143 12.998 1.37288 12.9697 1.50477 12.9148C1.63666 12.8598 1.75636 12.7793 1.85697 12.6779L6.49993 8.0241L11.1429 12.6779C11.2435 12.7793 11.3632 12.8598 11.4951 12.9148C11.627 12.9697 11.7684 12.998 11.9113 12.998C12.0542 12.998 12.1956 12.9697 12.3275 12.9148C12.4594 12.8598 12.5791 12.7793 12.6797 12.6779C12.7812 12.5773 12.8617 12.4576 12.9166 12.3257C12.9716 12.1938 12.9999 12.0523 12.9999 11.9095C12.9999 11.7666 12.9716 11.6251 12.9166 11.4933C12.8617 11.3614 12.7812 11.2417 12.6797 11.1411L8.02594 6.49809Z" fill="#75839D"/>
</svg>
