<svg width="16" height="16" viewBox="0 0 16 16" fill="none" xmlns="http://www.w3.org/2000/svg">
<path fill-rule="evenodd" clip-rule="evenodd" d="M0.300011 5.29175H3.60839V15.9365H0.300011V5.29175ZM1.95472 0.000343823C3.01259 0.000343823 3.87208 0.859841 3.87208 1.91771C3.87208 2.97661 3.01259 3.83645 1.95472 3.83645C1.69978 3.84128 1.44643 3.79524 1.2095 3.70101C0.972562 3.60679 0.756787 3.46628 0.574787 3.28769C0.392788 3.10911 0.248216 2.89603 0.149524 2.66092C0.0508318 2.42581 0 2.17338 0 1.9184C0 1.66341 0.0508318 1.41099 0.149524 1.17588C0.248216 0.940769 0.392788 0.727692 0.574787 0.549106C0.756787 0.37052 0.972562 0.230008 1.2095 0.135784C1.44643 0.0415608 1.69978 -0.00448333 1.95472 0.000343823ZM5.68356 5.29141H8.85682V6.74602H8.90083C9.34261 5.90922 10.4218 5.02703 12.0311 5.02703C15.3811 5.02703 15.9999 7.23181 15.9999 10.0981V15.9365H12.6936V10.7599C12.6936 9.52564 12.6709 7.93763 10.9746 7.93763C9.25323 7.93763 8.98884 9.28223 8.98884 10.6708V15.9365H5.68322V5.29175L5.68356 5.29141Z" fill="white"/>
</svg>
