<svg width="17" height="17" viewBox="0 0 17 17" fill="none" xmlns="http://www.w3.org/2000/svg">
<path d="M16.7614 15.5551L13.6097 12.4289C14.8331 10.9036 15.4255 8.96747 15.2652 7.01872C15.1049 5.06998 14.2041 3.25671 12.7479 1.95176C11.2918 0.646813 9.39095 -0.0506211 7.43636 0.00286363C5.48176 0.0563484 3.62194 0.856687 2.23931 2.23931C0.856687 3.62194 0.0563484 5.48176 0.00286363 7.43636C-0.0506211 9.39095 0.646813 11.2918 1.95176 12.7479C3.25671 14.2041 5.06998 15.1049 7.01872 15.2652C8.96747 15.4255 10.9036 14.8331 12.4289 13.6097L15.5551 16.7359C15.634 16.8155 15.728 16.8787 15.8315 16.9218C15.935 16.965 16.0461 16.9872 16.1582 16.9872C16.2704 16.9872 16.3814 16.965 16.4849 16.9218C16.5884 16.8787 16.6824 16.8155 16.7614 16.7359C16.9145 16.5775 17.0001 16.3658 17.0001 16.1455C17.0001 15.9252 16.9145 15.7135 16.7614 15.5551ZM7.66324 13.6097C6.48713 13.6097 5.33744 13.261 4.35955 12.6076C3.38165 11.9542 2.61948 11.0254 2.1694 9.93886C1.71932 8.85228 1.60156 7.65664 1.83101 6.50314C2.06046 5.34963 2.62681 4.29007 3.45844 3.45844C4.29007 2.62681 5.34963 2.06046 6.50314 1.83101C7.65664 1.60156 8.85228 1.71932 9.93886 2.1694C11.0254 2.61948 11.9542 3.38165 12.6076 4.35955C13.261 5.33744 13.6097 6.48713 13.6097 7.66324C13.6097 9.24035 12.9832 10.7529 11.868 11.868C10.7529 12.9832 9.24035 13.6097 7.66324 13.6097Z" fill="#BAC1CE"/>
</svg>
