<svg width="18" height="18" viewBox="0 0 18 18" fill="none" xmlns="http://www.w3.org/2000/svg">
<path fill-rule="evenodd" clip-rule="evenodd" d="M5.25417 2.65857C3.33274 3.96661 2.07442 6.17056 2.07442 8.66512C2.07442 12.675 5.32504 15.9256 9.33489 15.9256C11.8295 15.9256 14.0334 14.6673 15.3414 12.7459C10.042 12.1665 5.83349 7.95802 5.25417 2.65857ZM16.5954 10.7396C17.4936 10.7396 18.2671 11.5312 17.9117 12.3561C16.4811 15.676 13.1794 18 9.33489 18C4.17937 18 0 13.8206 0 8.66512C0 4.82063 2.32405 1.51894 5.64387 0.0883467C6.46881 -0.26714 7.26047 0.506391 7.26047 1.40466C7.26047 6.56018 11.4398 10.7396 16.5954 10.7396Z" fill="#535763"/>
</svg>
