<svg width="17" height="14" viewBox="0 0 17 14" fill="none" xmlns="http://www.w3.org/2000/svg">
<path d="M16.9291 6.45775C15.2127 2.47264 11.9838 0 8.49999 0C5.01621 0 1.78734 2.47264 0.0709373 6.45775C0.0241498 6.56495 0 6.68066 0 6.79763C0 6.9146 0.0241498 7.0303 0.0709373 7.13751C1.78734 11.1226 5.01621 13.5953 8.49999 13.5953C11.9838 13.5953 15.2127 11.1226 16.9291 7.13751C16.9758 7.0303 17 6.9146 17 6.79763C17 6.68066 16.9758 6.56495 16.9291 6.45775ZM8.49999 11.8958C5.80643 11.8958 3.25732 9.95003 1.78734 6.79763C3.25732 3.64523 5.80643 1.69941 8.49999 1.69941C11.1936 1.69941 13.7427 3.64523 15.2127 6.79763C13.7427 9.95003 11.1936 11.8958 8.49999 11.8958ZM8.49999 3.39881C7.82777 3.39881 7.17065 3.59815 6.61172 3.97162C6.05278 4.34508 5.61715 4.8759 5.3599 5.49696C5.10265 6.11801 5.03534 6.8014 5.16649 7.4607C5.29763 8.12001 5.62134 8.72562 6.09667 9.20095C6.572 9.67628 7.17761 9.99999 7.83692 10.1311C8.49622 10.2623 9.17961 10.195 9.80066 9.93772C10.4217 9.68047 10.9525 9.24484 11.326 8.68591C11.6995 8.12697 11.8988 7.46985 11.8988 6.79763C11.8988 5.89621 11.5407 5.0317 10.9033 4.3943C10.2659 3.7569 9.40142 3.39881 8.49999 3.39881ZM8.49999 8.49703C8.16388 8.49703 7.83532 8.39736 7.55585 8.21063C7.27639 8.0239 7.05857 7.75849 6.92995 7.44796C6.80132 7.13744 6.76767 6.79574 6.83324 6.46609C6.89881 6.13644 7.06067 5.83363 7.29833 5.59596C7.536 5.3583 7.8388 5.19645 8.16846 5.13087C8.49811 5.0653 8.8398 5.09896 9.15033 5.22758C9.46086 5.3562 9.72627 5.57402 9.913 5.85349C10.0997 6.13295 10.1994 6.46152 10.1994 6.79763C10.1994 7.24834 10.0204 7.68059 9.70166 7.99929C9.38296 8.31799 8.95071 8.49703 8.49999 8.49703Z" fill="#BAC1CE"/>
</svg>
