<svg width="21" height="20" viewBox="0 0 21 20" fill="none" xmlns="http://www.w3.org/2000/svg">
<path d="M20.1755 11.0049C20.027 10.8822 19.8472 10.8037 19.6563 10.7782C19.4654 10.7528 19.2712 10.7815 19.0958 10.861C18.0086 11.3585 16.8264 11.6146 15.6307 11.6116C13.4188 11.6089 11.2977 10.7319 9.72984 9.17169C8.16196 7.61151 7.27449 5.49475 7.26092 3.28292C7.26561 2.58972 7.35189 1.89948 7.51798 1.22646C7.55322 1.04707 7.54 0.861534 7.47968 0.688957C7.41936 0.51638 7.31412 0.363005 7.1748 0.244636C7.03548 0.126266 6.86712 0.0471811 6.68706 0.0155289C6.50701 -0.0161233 6.32177 0.000801732 6.15043 0.0645604C4.5385 0.789367 3.13728 1.91204 2.0784 3.32711C1.01952 4.74218 0.337732 6.4032 0.0970953 8.15413C-0.143542 9.90506 0.0648671 11.6884 0.702743 13.3367C1.34062 14.985 2.38703 16.444 3.74366 17.5768C5.10029 18.7096 6.72262 19.4789 8.45823 19.8125C10.1939 20.1461 11.9858 20.0331 13.6657 19.4839C15.3456 18.9348 16.8584 17.9676 18.0618 16.6733C19.2653 15.379 20.12 13.7999 20.5456 12.0846C20.5975 11.8882 20.59 11.6808 20.5241 11.4887C20.4582 11.2965 20.3369 11.1282 20.1755 11.0049ZM10.4073 17.8838C8.68168 17.8716 7.00201 17.3263 5.59827 16.3226C4.19452 15.3189 3.13532 13.9059 2.5657 12.277C1.99608 10.648 1.94388 8.88284 2.41626 7.22309C2.88863 5.56334 3.86248 4.09018 5.20446 3.00529V3.28292C5.20718 6.04729 6.30653 8.69766 8.26124 10.6524C10.216 12.6071 12.8663 13.7064 15.6307 13.7092C16.3565 13.7118 17.0805 13.636 17.79 13.4829C17.0804 14.8253 16.0178 15.9485 14.7168 16.7313C13.4157 17.5141 11.9257 17.9268 10.4073 17.9249V17.8838Z" fill="#262B35"/>
</svg>
