<svg width="12" height="13" viewBox="0 0 12 13" fill="none" xmlns="http://www.w3.org/2000/svg">
<path d="M10.9996 5.00618H3.40643L6.70781 1.71481C6.89619 1.52642 7.00203 1.27092 7.00203 1.00451C7.00203 0.738098 6.89619 0.482597 6.70781 0.294214C6.51943 0.105832 6.26393 0 5.99752 0C5.7311 0 5.4756 0.105832 5.28722 0.294214L0.285132 5.2963C0.194054 5.39144 0.122659 5.50364 0.0750448 5.62644C-0.0250149 5.87 -0.0250149 6.14319 0.0750448 6.38676C0.122659 6.50956 0.194054 6.62175 0.285132 6.71689L5.28722 11.719C5.38022 11.8127 5.49087 11.8872 5.61278 11.938C5.73469 11.9888 5.86545 12.0149 5.99752 12.0149C6.12958 12.0149 6.26034 11.9888 6.38225 11.938C6.50416 11.8872 6.61481 11.8127 6.70781 11.719C6.80158 11.626 6.876 11.5153 6.92679 11.3934C6.97758 11.2715 7.00373 11.1407 7.00373 11.0087C7.00373 10.8766 6.97758 10.7459 6.92679 10.6239C6.876 10.502 6.80158 10.3914 6.70781 10.2984L3.40643 7.00701H10.9996C11.2649 7.00701 11.5194 6.90161 11.707 6.714C11.8946 6.52638 12 6.27192 12 6.0066C12 5.74127 11.8946 5.48681 11.707 5.2992C11.5194 5.11158 11.2649 5.00618 10.9996 5.00618Z" fill="#262B35"/>
</svg>
