<svg width="14" height="19" viewBox="0 0 14 19" fill="none" xmlns="http://www.w3.org/2000/svg">
<path d="M6.90912 12.091C7.82533 12.091 8.70401 11.727 9.35186 11.0791C9.99972 10.4313 10.3637 9.55261 10.3637 8.6364V3.45456C10.3637 2.53835 9.99972 1.65967 9.35186 1.01182C8.70401 0.363962 7.82533 0 6.90912 0C5.99291 0 5.11423 0.363962 4.46638 1.01182C3.81852 1.65967 3.45456 2.53835 3.45456 3.45456V8.6364C3.45456 9.55261 3.81852 10.4313 4.46638 11.0791C5.11423 11.727 5.99291 12.091 6.90912 12.091ZM5.18184 3.45456C5.18184 2.99646 5.36382 2.55712 5.68775 2.23319C6.01168 1.90926 6.45102 1.72728 6.90912 1.72728C7.36722 1.72728 7.80656 1.90926 8.13049 2.23319C8.45442 2.55712 8.6364 2.99646 8.6364 3.45456V8.6364C8.6364 9.0945 8.45442 9.53384 8.13049 9.85777C7.80656 10.1817 7.36722 10.3637 6.90912 10.3637C6.45102 10.3637 6.01168 10.1817 5.68775 9.85777C5.36382 9.53384 5.18184 9.0945 5.18184 8.6364V3.45456ZM13.8182 8.6364C13.8182 8.40735 13.7273 8.18768 13.5653 8.02572C13.4033 7.86375 13.1837 7.77276 12.9546 7.77276C12.7256 7.77276 12.5059 7.86375 12.3439 8.02572C12.182 8.18768 12.091 8.40735 12.091 8.6364C12.091 10.0107 11.545 11.3287 10.5732 12.3005C9.60145 13.2723 8.28343 13.8182 6.90912 13.8182C5.53481 13.8182 4.21679 13.2723 3.24501 12.3005C2.27322 11.3287 1.72728 10.0107 1.72728 8.6364C1.72728 8.40735 1.63629 8.18768 1.47433 8.02572C1.31236 7.86375 1.09269 7.77276 0.86364 7.77276C0.634589 7.77276 0.414918 7.86375 0.252955 8.02572C0.0909906 8.18768 0 8.40735 0 8.6364C0.00152501 10.3182 0.616399 11.9416 1.72935 13.2024C2.8423 14.4633 4.37691 15.2748 6.04548 15.4851V17.2728H4.3182C4.08915 17.2728 3.86948 17.3638 3.70752 17.5258C3.54555 17.6877 3.45456 17.9074 3.45456 18.1364C3.45456 18.3655 3.54555 18.5852 3.70752 18.7471C3.86948 18.9091 4.08915 19.0001 4.3182 19.0001H9.50004C9.72909 19.0001 9.94876 18.9091 10.1107 18.7471C10.2727 18.5852 10.3637 18.3655 10.3637 18.1364C10.3637 17.9074 10.2727 17.6877 10.1107 17.5258C9.94876 17.3638 9.72909 17.2728 9.50004 17.2728H7.77276V15.4851C9.44133 15.2748 10.9759 14.4633 12.0889 13.2024C13.2018 11.9416 13.8167 10.3182 13.8182 8.6364Z" fill="#BAC1CE"/>
</svg>
